<?xml version="1.0" encoding="utf-8"?>
<!-- Generator: Adobe Illustrator 15.0.0, SVG Export Plug-In . SVG Version: 6.00 Build 0)  -->
<svg version="1.2" baseProfile="tiny" id="Layer_1" xmlns="http://www.w3.org/2000/svg" xmlns:xlink="http://www.w3.org/1999/xlink"
	 x="0px" y="0px" width="181px" height="137px" viewBox="0 0 181 137" overflow="inherit" xml:space="preserve">
<g>
	<path fill="#A5E089" d="M90.343,22.422l48.791,48.79c1.088-4.738,1.78-9.792,1.955-15.18c1.706-52.482,0-47.562,0-47.562H39.603
		v47.562c0.151,5.386,0.838,10.445,1.937,15.193L90.335,22.43L90.343,22.422z"/>
	<path fill="#56AB2C" d="M90.335,22.43v106.769c0.002,0.001,0.011,0.005,0.011,0.005s39.394-17.075,48.788-57.991l-48.791-48.79
		L90.335,22.43z"/>
	<path fill="#FFFFFF" d="M90.335,129.198V22.43L41.54,71.225C50.83,111.366,89.925,129.015,90.335,129.198z"/>
</g>
<path id="path2875_1_" fill="none" stroke="#257A69" stroke-width="3" stroke-miterlimit="10" d="
	M90.346,129.203c0,0,49.055-21.253,50.743-73.171c1.706-52.482,0-47.562,0-47.562H39.603v47.562
	C41.038,107.191,90.346,129.203,90.346,129.203z"/>
<polygon fill="#542437" points="170.223,75.322 173.783,80.333 157.631,87.608 157.631,77.765 "/>
<polygon fill="#542437" points="11.228,71.889 7.667,66.878 23.819,59.603 23.819,69.446 "/>
<polygon fill="#D95B43" points="173.783,48.564 7.667,66.878 7.667,98.621 173.783,80.307 "/>
<g>
	<path fill="#FFFFFF" d="M28.169,88.385v-2.703c0.44-0.137,0.945-0.26,1.385-0.353v-2.944l-4.439,0.496v2.944
		c0.44-0.005,0.945,0.005,1.385,0.043v2.702l-7.383,0.825v-2.637c0.571-0.175,1.252-0.359,1.912-0.478v-9.03
		c-0.659,0.029-1.34-0.005-1.912-0.05v-2.637l7.383-0.825v2.702c-0.44,0.138-0.945,0.26-1.385,0.354v2.504l4.439-0.496v-2.504
		c-0.44,0.004-0.945-0.005-1.385-0.043v-2.703l7.383-0.824v2.637c-0.571,0.174-1.252,0.358-1.912,0.478v9.03
		c0.659-0.03,1.34,0.004,1.912,0.05v2.637L28.169,88.385z"/>
	<path fill="#FFFFFF" d="M36.61,87.441v-2.637c0.572-0.174,1.252-0.359,1.912-0.477v-9.03c-0.659,0.028-1.34-0.005-1.912-0.051
		V72.61l7.911-0.883v2.637c-0.572,0.173-1.253,0.358-1.912,0.477v9.03c0.659-0.029,1.34,0.004,1.912,0.051v2.637L36.61,87.441z"/>
	<path fill="#FFFFFF" d="M58.408,79.777v4.461c-1.428,0.797-3.362,1.408-5.383,1.634c-4.988,0.557-7.602-1.986-7.602-6.424
		c0-4.922,3.339-8.437,8.591-9.023c1.406-0.157,2.856-0.122,4.307,0.067v4.703l-3.296,0.368c-0.11-0.515-0.176-0.97-0.22-1.491
		c-0.285-0.034-0.615-0.02-0.944,0.018c-2.637,0.294-4,2.094-4,4.577c0,2.308,1.099,3.7,3.626,3.418
		c0.308-0.034,0.615-0.112,0.834-0.202v-1.604c-0.659,0.029-1.34-0.004-1.846-0.058v-2.637l6.856-0.766v2.702
		C59.023,79.621,58.715,79.699,58.408,79.777z"/>
	<path fill="#FFFFFF" d="M69.046,83.819v-2.702c0.438-0.137,0.944-0.26,1.384-0.353V77.82l-4.439,0.495v2.944
		c0.439-0.005,0.945,0.005,1.385,0.044v2.702l-7.383,0.824v-2.637c0.571-0.174,1.252-0.359,1.911-0.477v-9.03
		c-0.659,0.028-1.34-0.005-1.911-0.051v-2.637l7.383-0.824v2.702c-0.439,0.137-0.945,0.259-1.385,0.353v2.504l4.439-0.495v-2.504
		c-0.439,0.004-0.945-0.005-1.384-0.044v-2.702l7.383-0.824v2.637c-0.572,0.173-1.253,0.358-1.912,0.477v9.03
		c0.659-0.029,1.34,0.004,1.912,0.051v2.637L69.046,83.819z"/>
	<path fill="#FFFFFF" d="M77.486,82.877V80.24c0.571-0.175,1.252-0.36,1.911-0.478v-9.03c-0.659,0.028-1.34-0.005-1.911-0.05v-2.637
		l7.91-0.884v2.637c-0.571,0.173-1.252,0.358-1.911,0.478v8.547l1.45-0.162c0.043-0.466,0.109-0.958,0.198-1.538l3.12-0.349v4.899
		L77.486,82.877z"/>
	<path fill="#FFFFFF" d="M97.22,80.673v-2.637c0.395-0.109,0.923-0.257,1.317-0.346l-0.285-0.824l-4.241,0.474l-0.263,0.886
		c0.395,0.001,0.922,0.03,1.317,0.051v2.637l-6.263,0.699v-2.659c0.33-0.124,0.615-0.222,0.945-0.281l3.911-12.433l5.164-0.577
		l4.108,11.538c0.33-0.015,0.615,0.019,0.945,0.069v2.66L97.22,80.673z M96.802,72.458c-0.286-0.825-0.527-1.589-0.681-2.495
		l-0.045,0.005c-0.131,0.872-0.418,1.892-0.726,2.894l-0.373,1.206l2.285-0.255L96.802,72.458z"/>
	<path fill="#FFFFFF" d="M119.568,66.246v11.931l-5.186,0.579l-2.746-4.813c-0.615-1.095-1.099-2.228-1.473-3.175
		c0.176,1.825,0.109,3.701,0.109,5.547c0.418-0.003,0.901,0.01,1.341,0.049v2.702l-7.185,0.802V77.23
		c0.57-0.174,1.252-0.359,1.91-0.477v-9.03c-0.658,0.028-1.34-0.005-1.91-0.051v-2.637l7.141-0.797l2.703,4.839
		c0.615,1.118,0.988,1.89,1.516,3.017c-0.197-1.779-0.154-3.608-0.154-5.409c-0.417,0.002-0.812-0.02-1.186-0.066v-2.702
		l6.307-0.704v2.702C120.382,66.045,119.986,66.154,119.568,66.246z"/>
	<path fill="#FFFFFF" d="M128.426,77.298c-1.604,0.179-4.153,0.354-4.702,0.415l-1.911,0.213v-2.637
		c0.57-0.174,1.252-0.359,1.911-0.477v-9.03c-0.659,0.028-1.341-0.005-1.911-0.051v-2.636l1.802-0.201
		c1.208-0.135,3.296-0.456,5.449-0.697c4.328-0.483,7.361,0.958,7.361,6.318C136.425,73.592,133.238,76.761,128.426,77.298z
		 M128.844,65.671c-0.483,0.055-0.726,0.081-1.032,0.159v7.933c0.176,0.023,0.461,0.015,0.944-0.04
		c1.823-0.203,3.252-1.616,3.252-4.384C132.008,67.031,131.568,65.367,128.844,65.671z"/>
	<path fill="#FFFFFF" d="M137.306,76.196V73.56c0.571-0.175,1.252-0.36,1.911-0.478v-9.03c-0.659,0.029-1.34-0.004-1.911-0.05
		v-2.637l10.877-1.215v4.219l-3.165,0.354c-0.064-0.367-0.109-0.691-0.153-0.995l-1.56,0.174v2.616l1.318-0.147
		c0.044-0.269,0.087-0.537,0.153-0.809l2.703-0.302v4.438L144.776,70c-0.066-0.256-0.109-0.515-0.153-0.773l-1.318,0.147v2.878
		l1.582-0.177c0.044-0.444,0.088-0.734,0.153-1.16l3.209-0.358v4.417L137.306,76.196z"/>
	<path fill="#FFFFFF" d="M158.38,73.843l-2.659-5.108l-0.439,0.049v2.505c0.264,0.015,0.594,0.044,0.945,0.093v2.702l-6.943,0.775
		v-2.637c0.57-0.174,1.252-0.359,1.911-0.478v-9.03c-0.659,0.028-1.341-0.005-1.911-0.05v-2.637l1.758-0.196
		c0.527-0.059,3.362-0.486,5.229-0.694c3.78-0.422,5.889,0.683,5.889,3.978c0,1.561-0.813,3.233-2.416,4.16
		c0.175,0.2,0.308,0.427,0.438,0.654l1.561,2.66c0.308,0.009,0.725,0.028,1.055,0.035v2.725L158.38,73.843z M156.051,62.523
		c-0.264,0.029-0.638,0.093-0.77,0.129v3.187c0.154,0.005,0.462-0.008,0.682-0.032c1.12-0.125,1.89-0.805,1.89-1.902
		C157.853,63.025,157.391,62.374,156.051,62.523z"/>
</g>
<g>
	<path fill="#542437" d="M27.559,87.773V85.07c0.439-0.137,0.945-0.259,1.384-0.352v-2.944l-4.438,0.496v2.944
		c0.439-0.006,0.945,0.004,1.384,0.042v2.703l-7.383,0.825v-2.637c0.572-0.174,1.252-0.36,1.912-0.478V76.64
		c-0.66,0.03-1.34-0.004-1.912-0.05v-2.637l7.383-0.825v2.703c-0.439,0.138-0.945,0.26-1.384,0.353v2.506l4.438-0.496v-2.506
		c-0.439,0.006-0.945-0.004-1.384-0.043v-2.703l7.383-0.824v2.637c-0.572,0.174-1.252,0.36-1.912,0.478v9.031
		c0.66-0.03,1.34,0.004,1.912,0.05v2.637L27.559,87.773z"/>
	<path fill="#542437" d="M35.999,86.831v-2.637c0.571-0.173,1.252-0.359,1.912-0.478v-9.031c-0.659,0.031-1.34-0.003-1.912-0.05
		v-2.637l7.91-0.884v2.637c-0.571,0.175-1.252,0.361-1.912,0.478v9.031c0.66-0.029,1.341,0.005,1.912,0.05v2.637L35.999,86.831z"/>
	<path fill="#542437" d="M57.797,79.167v4.46c-1.428,0.797-3.362,1.409-5.383,1.635c-4.988,0.557-7.603-1.985-7.603-6.425
		c0-4.922,3.34-8.437,8.591-9.022c1.406-0.157,2.856-0.121,4.307,0.068v4.701l-3.296,0.368c-0.11-0.515-0.177-0.969-0.22-1.491
		c-0.285-0.034-0.615-0.019-0.944,0.018c-2.637,0.295-4,2.096-4,4.578c0,2.307,1.099,3.7,3.626,3.418
		c0.308-0.034,0.615-0.112,0.834-0.203v-1.604c-0.659,0.029-1.34-0.005-1.846-0.058v-2.637l6.855-0.766v2.703
		C58.413,79.011,58.105,79.089,57.797,79.167z"/>
	<path fill="#542437" d="M68.436,83.209v-2.703c0.438-0.137,0.944-0.259,1.384-0.353v-2.944l-4.438,0.496v2.944
		c0.439-0.005,0.944,0.004,1.384,0.043v2.703l-7.383,0.824v-2.637c0.571-0.173,1.252-0.359,1.911-0.478v-9.031
		c-0.659,0.031-1.34-0.003-1.911-0.05v-2.637l7.383-0.824v2.703c-0.44,0.137-0.945,0.26-1.384,0.352v2.506l4.438-0.496v-2.506
		c-0.439,0.007-0.945-0.003-1.384-0.042v-2.703l7.383-0.825v2.637c-0.572,0.175-1.253,0.361-1.912,0.478v9.031
		c0.659-0.029,1.34,0.005,1.912,0.05v2.637L68.436,83.209z"/>
	<path fill="#542437" d="M76.875,82.266v-2.637c0.571-0.173,1.252-0.359,1.911-0.477v-9.031c-0.659,0.03-1.34-0.004-1.911-0.051
		v-2.637l7.91-0.883v2.637c-0.57,0.174-1.252,0.36-1.911,0.477v8.548l1.45-0.161c0.044-0.467,0.11-0.957,0.198-1.539l3.12-0.349v4.9
		L76.875,82.266z"/>
	<path fill="#542437" d="M96.608,80.062v-2.637c0.396-0.11,0.924-0.258,1.318-0.345l-0.285-0.825L93.4,76.729l-0.263,0.887
		c0.395-0.001,0.922,0.027,1.317,0.05v2.637l-6.263,0.699v-2.658c0.33-0.125,0.615-0.223,0.945-0.281l3.911-12.435l5.164-0.577
		l4.108,11.539c0.33-0.015,0.615,0.02,0.945,0.07v2.658L96.608,80.062z M96.191,71.847c-0.286-0.825-0.528-1.589-0.682-2.494
		l-0.044,0.005c-0.131,0.871-0.418,1.893-0.726,2.894l-0.373,1.206l2.285-0.255L96.191,71.847z"/>
	<path fill="#542437" d="M118.957,65.635v11.932l-5.186,0.579l-2.746-4.812c-0.615-1.097-1.099-2.229-1.473-3.176
		c0.176,1.826,0.109,3.701,0.109,5.547c0.418-0.003,0.901,0.009,1.341,0.048v2.703l-7.185,0.802V76.62
		c0.57-0.173,1.252-0.359,1.91-0.477v-9.031c-0.658,0.03-1.34-0.004-1.91-0.051v-2.636l7.141-0.799l2.703,4.842
		c0.615,1.116,0.988,1.889,1.516,3.016c-0.198-1.779-0.154-3.607-0.154-5.41c-0.417,0.004-0.812-0.019-1.186-0.065v-2.702
		l6.307-0.705v2.703C119.771,65.435,119.375,65.545,118.957,65.635z"/>
	<path fill="#542437" d="M127.814,76.687c-1.604,0.179-4.153,0.354-4.702,0.416l-1.911,0.213v-2.637
		c0.57-0.173,1.252-0.359,1.911-0.477v-9.031c-0.659,0.03-1.341-0.004-1.911-0.051v-2.636l1.801-0.201
		c1.209-0.136,3.296-0.457,5.45-0.697c4.328-0.483,7.361,0.958,7.361,6.319C135.813,72.98,132.627,76.149,127.814,76.687z
		 M128.232,65.061c-0.483,0.055-0.726,0.081-1.032,0.159v7.932c0.176,0.025,0.461,0.016,0.944-0.039
		c1.823-0.203,3.252-1.615,3.252-4.385C131.396,66.421,130.957,64.756,128.232,65.061z"/>
	<path fill="#542437" d="M136.694,75.586v-2.637c0.571-0.174,1.252-0.36,1.911-0.478V63.44c-0.659,0.03-1.34-0.004-1.911-0.05
		v-2.637l10.877-1.215v4.219l-3.165,0.354c-0.064-0.366-0.109-0.691-0.153-0.993l-1.56,0.175v2.613l1.318-0.146
		c0.043-0.269,0.087-0.537,0.153-0.809l2.702-0.302v4.438l-2.702,0.302c-0.066-0.256-0.11-0.515-0.153-0.773l-1.318,0.146v2.879
		l1.582-0.176c0.044-0.444,0.087-0.735,0.153-1.16l3.209-0.358v4.416L136.694,75.586z"/>
	<path fill="#542437" d="M157.769,73.231l-2.659-5.107l-0.439,0.049v2.505c0.264,0.015,0.594,0.043,0.945,0.092v2.703l-6.943,0.775
		v-2.637c0.57-0.174,1.252-0.359,1.911-0.478v-9.031c-0.659,0.03-1.341-0.003-1.911-0.05v-2.637l1.758-0.196
		c0.526-0.06,3.361-0.485,5.229-0.693c3.779-0.422,5.889,0.682,5.889,3.979c0,1.56-0.813,3.232-2.417,4.159
		c0.176,0.2,0.308,0.426,0.439,0.653l1.561,2.66c0.308,0.011,0.725,0.029,1.055,0.036v2.725L157.769,73.231z M155.439,61.912
		c-0.264,0.029-0.638,0.094-0.77,0.131v3.186c0.154,0.004,0.462-0.008,0.681-0.032c1.121-0.125,1.89-0.804,1.89-1.903
		C157.24,62.414,156.779,61.762,155.439,61.912z"/>
</g>
</svg>
