<?xml version="1.0" encoding="utf-8"?>
<!-- Generator: Adobe Illustrator 15.0.0, SVG Export Plug-In  -->
<!DOCTYPE svg PUBLIC "-//W3C//DTD SVG 1.1//EN" "http://www.w3.org/Graphics/SVG/1.1/DTD/svg11.dtd" [
	<!ENTITY ns_flows "http://ns.adobe.com/Flows/1.0/">
]>
<svg version="1.1"
	 xmlns="http://www.w3.org/2000/svg" xmlns:xlink="http://www.w3.org/1999/xlink" xmlns:a="http://ns.adobe.com/AdobeSVGViewerExtensions/3.0/"
	 x="0px" y="0px" width="181px" height="137px" viewBox="-10.733 -5.453 181 137"
	 overflow="visible" enable-background="new -10.733 -5.453 181 137" xml:space="preserve">
<defs>
</defs>
<path id="path2875_3_" fill="#A5E089" d="M79.647,126.213c0,0,50.621-21.931,52.363-75.507
	c1.759-54.158,0-49.08,0-49.08H27.286v49.08C28.766,103.499,79.647,126.213,79.647,126.213z"/>
<path fill="#56AB2C" d="M79.636,16.032v110.177c0.003,0.002,0.011,0.005,0.011,0.005s40.652-17.619,50.345-59.842L79.645,16.024
	L79.636,16.032z"/>
<path fill="#FFFFFF" d="M79.636,126.208V16.032L29.284,66.384C38.871,107.806,79.213,126.018,79.636,126.208z"/>
<path id="path2875_1_" fill="none" stroke="#257A69" stroke-width="3" stroke-miterlimit="10" d="
	M79.647,126.213c0,0,50.621-21.931,52.363-75.507c1.759-54.158,0-49.08,0-49.08H27.286v49.08
	C28.766,103.499,79.647,126.213,79.647,126.213z"/>
<polygon fill="#542437" points="155.773,71.872 159.447,77.042 142.781,84.549 142.781,74.392 "/>
<polygon fill="#542437" points="3.675,66.44 0,61.268 16.667,53.762 16.667,63.919 "/>
<polygon fill="#D95B43" points="159.447,44.259 0,61.268 0,94.026 159.447,77.015 "/>
<path fill="#FFFFFF" d="M28.896,83.371v-3.021c0.492-0.154,1.057-0.291,1.548-0.394v-3.293l-4.963,0.555v3.292
	c0.491-0.007,1.056,0.006,1.548,0.049v3.021l-8.256,0.923v-2.949c0.639-0.194,1.4-0.401,2.137-0.532v-10.1
	c-0.737,0.034-1.498-0.003-2.137-0.056v-2.947l8.256-0.923v3.021c-0.492,0.155-1.057,0.292-1.548,0.396v2.8l4.963-0.555v-2.8
	c-0.492,0.006-1.057-0.005-1.548-0.048v-3.023l8.255-0.921v2.947c-0.639,0.194-1.4,0.403-2.137,0.534v10.098
	c0.736-0.032,1.498,0.005,2.137,0.056v2.949L28.896,83.371z"/>
<path fill="#FFFFFF" d="M38.329,82.318v-2.947c0.638-0.194,1.4-0.403,2.137-0.534V68.739c-0.737,0.033-1.499-0.005-2.137-0.058
	v-2.946l8.845-0.988v2.947c-0.639,0.194-1.4,0.403-2.137,0.534v10.098c0.737-0.032,1.498,0.005,2.137,0.056v2.949L38.329,82.318z"/>
<path fill="#FFFFFF" d="M48.352,81.199V78.25c0.639-0.194,1.401-0.401,2.137-0.532V67.619c-0.736,0.034-1.498-0.004-2.137-0.057
	v-2.946l8.845-0.99v2.949c-0.639,0.194-1.4,0.401-2.137,0.534v9.558l1.622-0.182c0.049-0.521,0.123-1.07,0.221-1.72l3.489-0.391
	v5.479L48.352,81.199z"/>
<path fill="#FFFFFF" d="M70.416,78.734v-2.947c0.441-0.124,1.031-0.288,1.473-0.387l-0.32-0.923l-4.742,0.53l-0.294,0.991
	c0.442,0,1.032,0.033,1.474,0.057v2.948l-7.002,0.781v-2.973c0.369-0.139,0.688-0.248,1.057-0.314l4.373-13.902l5.774-0.645
	l4.595,12.901c0.369-0.017,0.688,0.021,1.057,0.079v2.973L70.416,78.734z M69.948,69.548c-0.32-0.923-0.59-1.777-0.762-2.79
	l-0.049,0.007c-0.148,0.974-0.468,2.116-0.811,3.235l-0.417,1.35l2.555-0.286L69.948,69.548z"/>
<path fill="#FFFFFF" d="M95.4,62.603v13.34l-5.798,0.648l-3.071-5.382c-0.688-1.226-1.229-2.492-1.646-3.55
	c0.197,2.042,0.123,4.138,0.123,6.202c0.466-0.004,1.007,0.011,1.498,0.054v3.021l-8.034,0.898v-2.947
	c0.639-0.194,1.401-0.403,2.137-0.534V64.255c-0.736,0.032-1.499-0.005-2.137-0.058V61.25l7.985-0.892l3.022,5.411
	c0.688,1.249,1.105,2.112,1.695,3.374c-0.221-1.99-0.173-4.036-0.173-6.05c-0.467,0.003-0.908-0.021-1.327-0.074v-3.021l7.053-0.787
	v3.021C96.31,62.378,95.868,62.501,95.4,62.603z"/>
<path fill="#FFFFFF" d="M105.3,74.96c-1.793,0.202-4.644,0.396-5.258,0.465l-2.137,0.239v-2.949
	c0.639-0.194,1.399-0.401,2.137-0.532V62.085c-0.737,0.033-1.498-0.005-2.137-0.057v-2.948l2.014-0.225
	c1.353-0.152,3.686-0.51,6.094-0.779c4.841-0.541,8.23,1.07,8.23,7.065C114.243,70.817,110.681,74.36,105.3,74.96z M105.767,61.962
	c-0.54,0.06-0.811,0.09-1.154,0.177v8.869c0.196,0.026,0.516,0.016,1.057-0.044c2.039-0.229,3.636-1.806,3.636-4.902
	C109.305,63.482,108.813,61.621,105.767,61.962z"/>
<path fill="#FFFFFF" d="M115.225,73.73v-2.948c0.639-0.194,1.4-0.401,2.138-0.533V60.151c-0.737,0.033-1.499-0.005-2.138-0.057
	v-2.948l12.161-1.358v4.718l-3.538,0.395c-0.073-0.41-0.122-0.773-0.173-1.111l-1.743,0.194v2.925l1.474-0.166
	c0.051-0.299,0.1-0.6,0.173-0.903l3.021-0.338v4.964l-3.021,0.336c-0.073-0.286-0.122-0.576-0.173-0.863l-1.474,0.163v3.219
	l1.769-0.197c0.05-0.497,0.099-0.822,0.172-1.298l3.587-0.399v4.938L115.225,73.73z"/>
<path fill="#FFFFFF" d="M138.785,71.098l-2.972-5.711l-0.492,0.054v2.802c0.295,0.016,0.663,0.049,1.057,0.104v3.021l-7.764,0.867
	v-2.949c0.639-0.194,1.399-0.402,2.138-0.532V58.655c-0.738,0.033-1.499-0.004-2.138-0.056v-2.948l1.966-0.22
	c0.589-0.066,3.759-0.542,5.848-0.776c4.226-0.471,6.584,0.765,6.584,4.45c0,1.744-0.909,3.614-2.702,4.651
	c0.195,0.223,0.344,0.477,0.491,0.73l1.744,2.974c0.344,0.011,0.811,0.033,1.18,0.042v3.046L138.785,71.098z M136.182,58.442
	c-0.295,0.033-0.713,0.104-0.86,0.145v3.562c0.172,0.006,0.517-0.007,0.762-0.035c1.253-0.139,2.113-0.9,2.113-2.128
	C138.196,59.003,137.681,58.274,136.182,58.442z"/>
<path fill="#542437" d="M28.266,82.741V79.72c0.492-0.155,1.057-0.292,1.548-0.395v-3.292l-4.963,0.554v3.293
	c0.492-0.008,1.056,0.003,1.548,0.048v3.021l-8.255,0.923v-2.949c0.638-0.194,1.4-0.401,2.137-0.534V70.292
	c-0.737,0.034-1.499-0.003-2.137-0.056v-2.948l8.255-0.922v3.021c-0.492,0.154-1.057,0.289-1.548,0.396v2.8l4.963-0.555v-2.801
	c-0.491,0.007-1.056-0.006-1.548-0.049v-3.021l8.256-0.923v2.949c-0.639,0.194-1.401,0.403-2.138,0.534v10.098
	c0.737-0.032,1.499,0.005,2.138,0.056v2.949L28.266,82.741z"/>
<path fill="#542437" d="M37.699,81.688v-2.949c0.639-0.193,1.4-0.4,2.137-0.532V68.11c-0.737,0.032-1.498-0.006-2.137-0.058v-2.947
	l8.845-0.988v2.947c-0.639,0.194-1.4,0.403-2.137,0.534v10.098c0.737-0.034,1.498,0.005,2.137,0.056v2.949L37.699,81.688z"/>
<path fill="#542437" d="M47.723,80.569v-2.948c0.638-0.194,1.4-0.401,2.137-0.535V66.989c-0.736,0.034-1.499-0.004-2.137-0.056
	v-2.949l8.844-0.987v2.948c-0.638,0.194-1.399,0.401-2.137,0.532v9.558l1.622-0.18c0.049-0.521,0.122-1.07,0.221-1.72l3.489-0.391
	v5.479L47.723,80.569z"/>
<path fill="#542437" d="M69.785,78.104v-2.949c0.441-0.122,1.031-0.286,1.474-0.385l-0.32-0.923l-4.742,0.53l-0.294,0.992
	c0.442-0.002,1.032,0.032,1.474,0.056v2.948l-7.002,0.781v-2.973c0.369-0.138,0.688-0.248,1.056-0.314l4.374-13.903l5.774-0.644
	l4.593,12.901c0.37-0.016,0.689,0.021,1.057,0.079v2.973L69.785,78.104z M69.318,68.919c-0.319-0.924-0.59-1.778-0.763-2.791
	l-0.048,0.007c-0.147,0.974-0.467,2.116-0.811,3.233l-0.418,1.352l2.555-0.286L69.318,68.919z"/>
<path fill="#542437" d="M94.771,61.973v13.341l-5.798,0.647L85.9,70.58c-0.688-1.226-1.228-2.492-1.646-3.55
	c0.196,2.042,0.122,4.139,0.122,6.202c0.468-0.004,1.008,0.009,1.499,0.054v3.021l-8.034,0.897v-2.947
	c0.64-0.194,1.4-0.403,2.138-0.534V63.625c-0.738,0.032-1.499-0.005-2.138-0.057v-2.948l7.985-0.892l3.022,5.412
	c0.688,1.248,1.105,2.112,1.694,3.373c-0.221-1.99-0.172-4.035-0.172-6.049c-0.467,0.002-0.908-0.021-1.326-0.074v-3.022
	l7.052-0.787v3.022C95.68,61.749,95.237,61.872,94.771,61.973z"/>
<path fill="#542437" d="M104.67,74.332c-1.794,0.199-4.644,0.396-5.258,0.464l-2.137,0.239v-2.949
	c0.638-0.194,1.399-0.401,2.137-0.532V61.455c-0.737,0.033-1.499-0.004-2.137-0.056v-2.948l2.014-0.226
	c1.352-0.151,3.686-0.51,6.094-0.778c4.841-0.541,8.23,1.07,8.23,7.066C113.613,70.188,110.051,73.73,104.67,74.332z
	 M105.137,61.332c-0.54,0.061-0.811,0.089-1.155,0.177v8.869c0.196,0.026,0.517,0.016,1.057-0.043
	c2.04-0.229,3.637-1.807,3.637-4.903C108.675,62.853,108.184,60.991,105.137,61.332z"/>
<path fill="#542437" d="M114.595,73.1v-2.948c0.639-0.194,1.4-0.401,2.137-0.533V59.521c-0.736,0.033-1.498-0.005-2.137-0.056
	v-2.948l12.162-1.358v4.716l-3.538,0.395c-0.074-0.409-0.123-0.772-0.173-1.111l-1.744,0.195v2.924l1.474-0.165
	c0.05-0.3,0.099-0.6,0.172-0.903l3.022-0.338v4.964l-3.022,0.336c-0.073-0.286-0.122-0.575-0.172-0.865l-1.474,0.166v3.219
	l1.77-0.198c0.049-0.497,0.098-0.822,0.171-1.297l3.587-0.399v4.937L114.595,73.1z"/>
<path fill="#542437" d="M138.155,70.468l-2.972-5.713l-0.491,0.056v2.802c0.294,0.017,0.663,0.049,1.056,0.103v3.022l-7.764,0.867
	v-2.948c0.639-0.194,1.399-0.403,2.137-0.535V58.025c-0.737,0.033-1.498-0.004-2.137-0.056v-2.949l1.966-0.22
	c0.589-0.065,3.76-0.542,5.847-0.776c4.227-0.471,6.585,0.765,6.585,4.45c0,1.744-0.909,3.615-2.703,4.65
	c0.197,0.224,0.345,0.478,0.492,0.732l1.744,2.975c0.344,0.011,0.811,0.032,1.18,0.041v3.046L138.155,70.468z M135.552,57.812
	c-0.296,0.033-0.713,0.104-0.859,0.145v3.562c0.171,0.005,0.516-0.008,0.761-0.035c1.252-0.141,2.113-0.901,2.113-2.129
	C137.566,58.373,137.05,57.645,135.552,57.812z"/>
</svg>
