<?xml version="1.0" encoding="utf-8"?>
<!-- Generator: Adobe Illustrator 15.0.0, SVG Export Plug-In  -->
<!DOCTYPE svg PUBLIC "-//W3C//DTD SVG 1.1//EN" "http://www.w3.org/Graphics/SVG/1.1/DTD/svg11.dtd" [
	<!ENTITY ns_flows "http://ns.adobe.com/Flows/1.0/">
]>
<svg version="1.1"
	 xmlns="http://www.w3.org/2000/svg" xmlns:xlink="http://www.w3.org/1999/xlink" xmlns:a="http://ns.adobe.com/AdobeSVGViewerExtensions/3.0/"
	 x="0px" y="0px" width="181px" height="137px" viewBox="-11.958 -6.762 181 137"
	 overflow="visible" enable-background="new -11.958 -6.762 181 137" xml:space="preserve">
<defs>
</defs>
<path id="path2875_5_" fill="#A5E089" d="M78.173,123.904c0,0,49.683-21.526,51.392-74.109
	c1.728-53.154,0-48.17,0-48.17H26.781v48.17C28.233,101.609,78.173,123.904,78.173,123.904z"/>
<path fill="#56AB2C" d="M78.161,15.763v108.135c0.003,0.002,0.012,0.006,0.012,0.006s39.898-17.294,49.412-58.734L78.169,15.755
	L78.161,15.763z"/>
<path fill="#FFFFFF" d="M78.161,123.898V15.763L28.742,65.183C38.151,105.838,77.746,123.712,78.161,123.898z"/>
<path id="path2875_4_" fill="none" stroke="#257A69" stroke-width="3" stroke-miterlimit="10" d="
	M78.173,123.904c0,0,49.683-21.526,51.392-74.109c1.728-53.154,0-48.17,0-48.17H26.781v48.17
	C28.233,101.609,78.173,123.904,78.173,123.904z"/>
<polygon fill="#542437" points="152.889,77.969 156.495,83.044 140.137,90.411 140.137,80.442 "/>
<polygon fill="#542437" points="3.607,65.236 0,60.161 16.359,52.793 16.359,62.764 "/>
<polygon fill="#D95B43" points="156.495,43.468 0,60.161 0,99.729 156.495,83.036 "/>
<path fill="#FFFFFF" d="M28.36,80v-2.966c0.483-0.151,1.037-0.286,1.52-0.387v-3.231l-4.871,0.544v3.23
	c0.482-0.006,1.037,0.005,1.519,0.049v2.966l-8.103,0.905v-2.895c0.627-0.19,1.374-0.395,2.098-0.524v-9.909
	c-0.724,0.032-1.471-0.006-2.098-0.056v-2.893l8.103-0.905v2.966c-0.482,0.149-1.037,0.284-1.519,0.386v2.749l4.871-0.544v-2.749
	c-0.482,0.005-1.037-0.006-1.52-0.047v-2.966l8.103-0.905v2.894c-0.626,0.19-1.375,0.396-2.097,0.523v9.911
	c0.723-0.032,1.471,0.004,2.097,0.056v2.893L28.36,80z"/>
<path fill="#FFFFFF" d="M37.619,78.967v-2.894c0.627-0.19,1.375-0.396,2.098-0.524v-9.91c-0.723,0.032-1.471-0.006-2.098-0.056
	V62.69l8.681-0.97v2.892c-0.627,0.19-1.374,0.396-2.097,0.525v9.909c0.723-0.032,1.47,0.006,2.097,0.056v2.895L37.619,78.967z"/>
<path fill="#FFFFFF" d="M47.457,77.868v-2.895c0.626-0.19,1.375-0.394,2.098-0.523v-9.911c-0.723,0.032-1.471-0.004-2.098-0.056
	v-2.893l8.68-0.97v2.894c-0.626,0.19-1.373,0.394-2.097,0.523v9.382l1.591-0.179c0.048-0.512,0.12-1.051,0.217-1.688l3.425-0.383
	v5.377L47.457,77.868z"/>
<path fill="#FFFFFF" d="M69.111,75.449v-2.894c0.433-0.121,1.013-0.282,1.447-0.38l-0.314-0.905l-4.654,0.521L65.3,72.764
	c0.434,0,1.013,0.032,1.447,0.056v2.895l-6.873,0.767v-2.917c0.362-0.137,0.675-0.245,1.037-0.31l4.292-13.645l5.667-0.634
	l4.509,12.664c0.362-0.018,0.675,0.021,1.038,0.078v2.917L69.111,75.449z M68.653,66.435c-0.313-0.907-0.579-1.744-0.749-2.74
	l-0.047,0.008c-0.145,0.955-0.459,2.076-0.796,3.174l-0.41,1.324l2.507-0.28L68.653,66.435z"/>
<path fill="#FFFFFF" d="M93.634,59.617V72.71l-5.69,0.636l-3.015-5.282c-0.676-1.201-1.207-2.444-1.615-3.484
	c0.192,2.005,0.119,4.062,0.119,6.086c0.459-0.002,0.989,0.011,1.472,0.054v2.967l-7.886,0.88v-2.893
	c0.627-0.19,1.375-0.395,2.098-0.524v-9.909c-0.723,0.032-1.471-0.006-2.098-0.056v-2.895l7.838-0.875l2.965,5.312
	c0.676,1.225,1.086,2.071,1.665,3.309c-0.218-1.952-0.169-3.959-0.169-5.937c-0.459,0.003-0.892-0.02-1.303-0.072v-2.964
	l6.922-0.774v2.966C94.525,59.396,94.093,59.518,93.634,59.617z"/>
<path fill="#FFFFFF" d="M103.35,71.747c-1.76,0.195-4.558,0.386-5.161,0.454l-2.098,0.235v-2.894
	c0.628-0.19,1.375-0.396,2.098-0.525v-9.91c-0.723,0.033-1.47-0.005-2.098-0.056v-2.893l1.978-0.221
	c1.327-0.148,3.617-0.5,5.98-0.764c4.751-0.53,8.078,1.051,8.078,6.935C112.127,67.68,108.63,71.156,103.35,71.747z M103.808,58.988
	c-0.53,0.058-0.795,0.088-1.133,0.174v8.704c0.192,0.027,0.507,0.017,1.037-0.043c2.002-0.223,3.569-1.773,3.569-4.812
	C107.281,60.479,106.798,58.654,103.808,58.988z"/>
<path fill="#FFFFFF" d="M113.09,70.538v-2.895c0.628-0.19,1.376-0.394,2.098-0.522v-9.912c-0.722,0.033-1.47-0.004-2.098-0.055
	v-2.893l11.938-1.333v4.629l-3.473,0.388c-0.073-0.402-0.12-0.758-0.17-1.09l-1.711,0.19v2.871l1.446-0.162
	c0.049-0.296,0.097-0.591,0.169-0.888l2.966-0.332v4.872l-2.966,0.331c-0.072-0.282-0.12-0.566-0.169-0.851l-1.446,0.164v3.158
	l1.736-0.194c0.048-0.488,0.096-0.807,0.168-1.273l3.521-0.392v4.845L113.09,70.538z"/>
<path fill="#FFFFFF" d="M136.216,67.954l-2.918-5.604l-0.482,0.054v2.748c0.289,0.017,0.65,0.047,1.037,0.103v2.965l-7.62,0.852
	v-2.895c0.627-0.19,1.373-0.396,2.097-0.522v-9.912c-0.724,0.033-1.47-0.004-2.097-0.054v-2.894l1.929-0.216
	c0.579-0.064,3.689-0.534,5.739-0.762c4.147-0.463,6.462,0.749,6.462,4.366c0,1.713-0.892,3.548-2.652,4.564
	c0.193,0.22,0.338,0.469,0.482,0.718l1.712,2.921c0.338,0.011,0.796,0.03,1.158,0.039v2.99L136.216,67.954z M133.659,55.533
	c-0.289,0.032-0.7,0.102-0.844,0.142v3.496c0.168,0.005,0.507-0.007,0.747-0.034c1.229-0.138,2.074-0.884,2.074-2.089
	C135.637,56.083,135.13,55.368,133.659,55.533z"/>
<path fill="#542437" d="M27.743,79.382v-2.966c0.482-0.15,1.037-0.285,1.519-0.386v-3.232l-4.871,0.544v3.23
	c0.482-0.005,1.037,0.006,1.52,0.049v2.966l-8.103,0.903v-2.892c0.627-0.19,1.374-0.396,2.098-0.525v-9.909
	c-0.724,0.032-1.471-0.006-2.098-0.056v-2.895l8.103-0.903v2.966c-0.482,0.149-1.037,0.284-1.52,0.387v2.748l4.871-0.544v-2.749
	c-0.482,0.006-1.037-0.005-1.519-0.047v-2.966l8.102-0.905v2.894c-0.627,0.191-1.375,0.396-2.097,0.523v9.911
	c0.723-0.032,1.47,0.004,2.097,0.054v2.895L27.743,79.382z"/>
<path fill="#542437" d="M37,78.348v-2.893c0.626-0.19,1.375-0.396,2.098-0.524v-9.91c-0.723,0.032-1.471-0.005-2.098-0.056V62.07
	l8.681-0.968v2.893c-0.627,0.19-1.374,0.395-2.098,0.524v9.909c0.724-0.032,1.471,0.006,2.098,0.056v2.895L37,78.348z"/>
<path fill="#542437" d="M46.838,77.25v-2.895c0.627-0.19,1.375-0.396,2.098-0.522v-9.912c-0.723,0.032-1.471-0.005-2.098-0.056
	v-2.893l8.681-0.97v2.895c-0.626,0.19-1.374,0.393-2.098,0.522v9.382l1.592-0.178c0.048-0.513,0.12-1.052,0.216-1.689l3.425-0.383
	v5.378L46.838,77.25z"/>
<path fill="#542437" d="M68.493,74.83v-2.893c0.434-0.12,1.012-0.282,1.447-0.379l-0.314-0.906l-4.654,0.52l-0.29,0.974
	c0.434,0,1.013,0.032,1.447,0.056v2.895l-6.872,0.767v-2.917c0.361-0.137,0.675-0.244,1.037-0.31l4.292-13.646l5.667-0.632
	l4.509,12.662c0.362-0.017,0.676,0.021,1.037,0.077v2.917L68.493,74.83z M68.034,65.816c-0.313-0.907-0.579-1.746-0.748-2.739
	l-0.048,0.007c-0.145,0.956-0.458,2.075-0.795,3.175l-0.41,1.323l2.508-0.28L68.034,65.816z"/>
<path fill="#542437" d="M93.015,58.999v13.093l-5.69,0.636l-3.015-5.281c-0.675-1.202-1.205-2.447-1.615-3.485
	c0.193,2.005,0.12,4.062,0.12,6.086c0.458-0.001,0.988,0.012,1.471,0.055v2.966l-7.885,0.88v-2.892
	c0.627-0.192,1.375-0.396,2.099-0.525v-9.911c-0.724,0.034-1.471-0.004-2.099-0.055v-2.894l7.837-0.875l2.967,5.312
	c0.674,1.226,1.085,2.071,1.663,3.31c-0.217-1.953-0.169-3.96-0.169-5.938c-0.458,0.003-0.892-0.02-1.303-0.072v-2.965l6.922-0.773
	v2.966C93.907,58.777,93.474,58.898,93.015,58.999z"/>
<path fill="#542437" d="M102.731,71.129c-1.76,0.195-4.558,0.386-5.16,0.454l-2.098,0.234v-2.893
	c0.626-0.19,1.374-0.396,2.098-0.525V58.49c-0.724,0.032-1.472-0.005-2.098-0.056v-2.894l1.977-0.222
	c1.327-0.147,3.617-0.5,5.98-0.764c4.75-0.53,8.078,1.051,8.078,6.935C111.509,67.062,108.013,70.538,102.731,71.129z
	 M103.189,58.368c-0.53,0.059-0.795,0.09-1.134,0.174v8.706c0.193,0.027,0.507,0.017,1.037-0.043
	c2.002-0.225,3.569-1.773,3.569-4.812C106.662,59.861,106.18,58.036,103.189,58.368z"/>
<path fill="#542437" d="M112.473,69.92v-2.895c0.626-0.19,1.374-0.396,2.097-0.522v-9.912c-0.723,0.032-1.471-0.005-2.097-0.055
	v-2.895l11.936-1.333v4.63l-3.472,0.388c-0.073-0.401-0.121-0.758-0.17-1.089l-1.712,0.19v2.869l1.447-0.16
	c0.049-0.296,0.096-0.591,0.169-0.887l2.966-0.333v4.872l-2.966,0.331c-0.073-0.282-0.12-0.566-0.169-0.85l-1.447,0.161v3.158
	l1.736-0.192c0.049-0.488,0.097-0.807,0.169-1.273l3.521-0.392v4.846L112.473,69.92z"/>
<path fill="#542437" d="M135.597,67.336l-2.918-5.604l-0.482,0.052v2.751c0.289,0.016,0.651,0.046,1.038,0.101v2.966l-7.62,0.852
	v-2.895c0.627-0.19,1.373-0.396,2.098-0.522v-9.912c-0.725,0.032-1.471-0.004-2.098-0.055v-2.893l1.929-0.216
	c0.578-0.064,3.689-0.533,5.738-0.762c4.148-0.463,6.464,0.75,6.464,4.366c0,1.712-0.893,3.548-2.653,4.565
	c0.193,0.219,0.338,0.469,0.482,0.717l1.712,2.919c0.338,0.011,0.797,0.032,1.157,0.041v2.99L135.597,67.336z M133.041,54.914
	c-0.29,0.032-0.7,0.103-0.845,0.143v3.496c0.169,0.005,0.507-0.007,0.748-0.034c1.229-0.139,2.074-0.884,2.074-2.089
	C135.019,55.465,134.512,54.75,133.041,54.914z"/>
<path fill="#FFFFFF" d="M22.062,91.762v-1.408c0.212-0.059,0.493-0.138,0.705-0.185l-0.153-0.44l-2.267,0.253l-0.141,0.475
	c0.211-0.002,0.493,0.015,0.705,0.027v1.408l-3.348,0.374v-1.422c0.175-0.066,0.329-0.118,0.505-0.148l2.091-6.647l2.76-0.309
	l2.197,6.167c0.176-0.007,0.329,0.011,0.505,0.038v1.421L22.062,91.762z M21.839,87.371c-0.152-0.439-0.282-0.848-0.364-1.333
	l-0.023,0.004c-0.07,0.464-0.224,1.012-0.388,1.545l-0.2,0.646l1.222-0.137L21.839,87.371z"/>
<path fill="#FFFFFF" d="M33.622,87.677v2.384c-0.763,0.426-1.798,0.753-2.879,0.873c-2.666,0.299-4.064-1.062-4.064-3.433
	c0-2.63,1.786-4.51,4.593-4.824c0.752-0.084,1.527-0.064,2.303,0.036v2.514l-1.762,0.197c-0.059-0.274-0.094-0.518-0.118-0.798
	c-0.153-0.018-0.329-0.009-0.505,0.01c-1.409,0.157-2.138,1.119-2.138,2.448c0,1.232,0.587,1.977,1.938,1.825
	c0.165-0.018,0.329-0.06,0.446-0.107v-0.857c-0.352,0.017-0.716-0.002-0.986-0.03v-1.41l3.665-0.41v1.446
	C33.95,87.593,33.786,87.636,33.622,87.677z"/>
<path fill="#FFFFFF" d="M35.431,90.271V88.86c0.306-0.093,0.67-0.191,1.022-0.255v-4.827c-0.352,0.017-0.717-0.002-1.022-0.027
	v-1.41l4.229-0.473v1.411c-0.306,0.093-0.669,0.191-1.022,0.255v4.827c0.353-0.017,0.716,0.002,1.022,0.027v1.41L35.431,90.271z"/>
<path fill="#FFFFFF" d="M41.187,89.628v-1.41c0.306-0.094,0.67-0.192,1.022-0.255v-4.828c-0.353,0.017-0.717-0.001-1.022-0.026V81.7
	l4.229-0.473v1.41c-0.305,0.092-0.669,0.19-1.022,0.253v4.57l0.775-0.088c0.024-0.248,0.059-0.51,0.105-0.821l1.669-0.187v2.619
	L41.187,89.628z"/>
<path fill="#FFFFFF" d="M48.258,88.838v-1.409c0.305-0.093,0.669-0.193,1.022-0.255v-4.827c-0.353,0.016-0.717-0.002-1.022-0.027
	v-1.41l5.815-0.65v2.257l-1.691,0.188c-0.036-0.196-0.059-0.368-0.082-0.532l-0.834,0.094v1.397l0.705-0.077
	c0.023-0.144,0.046-0.287,0.082-0.433l1.445-0.162v2.373l-1.445,0.162c-0.036-0.139-0.059-0.276-0.082-0.415l-0.705,0.079v1.54
	l0.845-0.096c0.023-0.237,0.047-0.392,0.083-0.62l1.715-0.191v2.36L48.258,88.838z"/>
<path fill="#FFFFFF" d="M63.588,87.125v-1.408c0.212-0.06,0.493-0.139,0.705-0.185l-0.153-0.44l-2.267,0.251l-0.142,0.475
	c0.211,0,0.494,0.015,0.706,0.027v1.41l-3.348,0.373v-1.421c0.175-0.066,0.329-0.118,0.504-0.15l2.092-6.647l2.76-0.308l2.197,6.168
	c0.176-0.007,0.329,0.011,0.505,0.038v1.421L63.588,87.125z M63.365,82.734c-0.152-0.441-0.282-0.85-0.365-1.333l-0.023,0.002
	c-0.071,0.465-0.224,1.012-0.387,1.547l-0.2,0.645l1.221-0.136L63.365,82.734z"/>
<path fill="#FFFFFF" d="M75.113,79.461v3.288c0,2.29-1.281,3.397-3.442,3.638c-2.55,0.286-3.231-0.989-3.231-2.67v-3.51
	c-0.223,0.002-0.434-0.011-0.634-0.036v-1.444l3.536-0.396v1.446c-0.235,0.072-0.493,0.137-0.717,0.186v3.406
	c0,0.844,0.258,1.273,1.164,1.173c0.881-0.099,1.163-0.507,1.163-1.493v-3.347c-0.223,0.002-0.482-0.004-0.717-0.025v-1.444
	l3.489-0.39v1.444C75.523,79.357,75.324,79.414,75.113,79.461z"/>
<path fill="#FFFFFF" d="M79.317,85.521c-0.67,0.075-1.352,0.093-1.986,0.035v-2.456l1.751-0.195
	c0.034,0.255,0.069,0.521,0.093,0.753c0.036-0.004,0.119-0.015,0.165-0.019c0.599-0.068,0.939-0.328,0.939-0.691
	c0-1.151-3.172-0.058-3.172-2.829c0-1.574,1.188-2.717,3.23-2.945c0.646-0.071,1.245-0.08,1.881-0.021v2.338l-1.752,0.193
	c-0.034-0.206-0.07-0.472-0.094-0.706c-0.012,0.002-0.047,0.008-0.07,0.01c-0.61,0.068-0.846,0.341-0.846,0.646
	c0,0.997,3.172,0.231,3.172,2.734C82.63,83.954,81.35,85.295,79.317,85.521z"/>
<path fill="#FFFFFF" d="M87.481,84.457v-1.41c0.306-0.092,0.67-0.192,1.022-0.255v-4.827c-0.353,0.016-0.717-0.002-1.022-0.025
	v-1.41l5.815-0.648v2.253l-1.691,0.19c-0.036-0.196-0.06-0.37-0.082-0.532l-0.835,0.094v1.397l0.705-0.079
	c0.023-0.144,0.047-0.287,0.082-0.431l1.445-0.162v2.371l-1.445,0.162c-0.035-0.137-0.059-0.274-0.082-0.413l-0.705,0.079v1.538
	l0.846-0.094c0.023-0.239,0.047-0.394,0.083-0.62l1.715-0.192v2.361L87.481,84.457z"/>
<path fill="#FFFFFF" d="M98.384,83.299c-0.857,0.095-2.222,0.188-2.515,0.221l-1.021,0.115v-1.408
	c0.305-0.094,0.669-0.194,1.021-0.258v-4.825c-0.353,0.015-0.717-0.004-1.021-0.026v-1.411l0.963-0.107
	c0.646-0.072,1.762-0.244,2.913-0.372c2.314-0.259,3.936,0.513,3.936,3.378C102.659,81.317,100.955,83.012,98.384,83.299z
	 M98.606,77.084c-0.259,0.027-0.387,0.044-0.553,0.085v4.239c0.094,0.013,0.247,0.008,0.505-0.021
	c0.976-0.107,1.739-0.862,1.739-2.342C100.298,77.811,100.062,76.921,98.606,77.084z"/>
<path fill="#FFFFFF" d="M104.093,82.602v-1.408c0.305-0.094,0.669-0.194,1.021-0.255V76.11c-0.353,0.017-0.717-0.001-1.021-0.026
	v-1.41l4.229-0.473v1.41c-0.306,0.094-0.669,0.192-1.022,0.255v4.827c0.354-0.016,0.717,0.002,1.022,0.027v1.41L104.093,82.602z"/>
<path fill="#FFFFFF" d="M116.614,75.896l-1.668,0.185c-0.047-0.252-0.095-0.518-0.117-0.798l-0.61,0.07v4.568
	c0.351-0.016,0.716,0.002,1.021,0.027v1.408l-4.229,0.473v-1.408c0.306-0.094,0.67-0.192,1.022-0.257v-4.567l-0.611,0.066
	c-0.023,0.286-0.07,0.561-0.117,0.825l-1.668,0.185v-2.617l6.978-0.78V75.896z"/>
<path fill="#FFFFFF" d="M117.931,81.057v-1.408c0.305-0.094,0.669-0.194,1.021-0.257v-4.826c-0.352,0.015-0.716-0.003-1.021-0.026
	v-1.41l4.229-0.473v1.41c-0.306,0.093-0.67,0.192-1.021,0.255v4.827c0.352-0.016,0.716,0.002,1.021,0.027v1.408L117.931,81.057z"/>
<path fill="#FFFFFF" d="M127.257,80.18c-2.491,0.278-3.713-1.089-3.713-3.604c0-2.561,1.81-4.441,4.03-4.689
	c2.067-0.231,3.712,0.701,3.712,3.579C131.286,78.049,129.513,79.929,127.257,80.18z M127.409,73.902
	c-0.763,0.085-1.538,0.759-1.538,2.25c0,1.353,0.434,2.125,1.492,2.008c0.681-0.077,1.598-0.648,1.598-2.328
	C128.961,74.445,128.455,73.786,127.409,73.902z"/>
<path fill="#FFFFFF" d="M140.767,72.128v6.378l-2.772,0.311l-1.469-2.573c-0.329-0.585-0.588-1.19-0.787-1.697
	c0.094,0.978,0.06,1.978,0.06,2.966c0.223-0.002,0.481,0.004,0.716,0.025v1.444l-3.841,0.43v-1.41
	c0.305-0.094,0.669-0.192,1.021-0.256v-4.827c-0.353,0.017-0.717-0.002-1.021-0.026v-1.409l3.818-0.427l1.444,2.587
	c0.329,0.598,0.528,1.01,0.811,1.613c-0.106-0.952-0.082-1.93-0.082-2.893c-0.224,0.002-0.435-0.009-0.635-0.034v-1.444l3.372-0.378
	v1.444C141.201,72.021,140.989,72.079,140.767,72.128z"/>
<path id="path2875_2_" display="none" fill="#DD0000" d="M78.422,124.904
	c0,0,50.621-21.931,52.363-75.507c1.759-54.158,0-49.08,0-49.08H26.062v49.08C27.542,102.189,78.422,124.904,78.422,124.904z"/>
</svg>
